<?xml version="1.0" encoding="UTF-8" standalone="no"?>
<!DOCTYPE svg  PUBLIC '-//W3C//DTD SVG 1.1//EN'  'http://www.w3.org/Graphics/SVG/1.1/DTD/svg11.dtd'>
<svg id="flash0.ai" style="enable-background:new 0 0 35.2 43.8" xmlns="http://www.w3.org/2000/svg" xml:space="preserve" height="43.8px" viewBox="0 0 35.2 43.8" width="35.2px" version="1.1" y="0px" x="0px" xmlns:xlink="http://www.w3.org/1999/xlink">
<g clip-rule="evenodd">
	<g fill-rule="evenodd">
		<path d="m32.597 0.587l0.515 4.126-1.224 1.097c0.901 0.559 1.354 1.333 1.354 2.321 0 1.204 0.128 4.126 0.387 8.769 0.301 5.287 0.58 8.639 0.839 10.058 0.301 1.806 0.472 4.19 0.515 7.156 0.043 3.139-0.107 4.987-0.451 5.545-0.13 0.172-0.387 0.817-0.774 1.935-0.257 0.731-0.709 1.268-1.354 1.611-0.773 0.388-5.63 0.538-14.571 0.452-8.812-0.086-14.013-0.301-15.604-0.645-1.247-0.259-1.913-1.354-1.999-3.288 0.215-2.493 0.344-4.32 0.387-5.48l1.161-14.508c0.43-1.977 0.645-5.91 0.645-11.799 0-0.473 0.538-1.01 1.612-1.612 0.559-0.301 1.096-0.558 1.612-0.773l-2.646-0.645 0.259-4.707c3.18 0.129 6.469 0.193 9.865 0.193 4.813 0.001 11.304 0.065 19.472 0.194z" fill="#A3793A"/>
		<path d="m24.537 35.92l0.45 0.838c0.387 0.474 0.86 0.516 1.42 0.13 0.901-0.56 1.524-1.591 1.868-3.096l0.259 0.58 2.643 7.802c0.173 0.688 0.151 1.118-0.063 1.289-0.215 0.173-1.204 0.259-2.966 0.259-2.579 0.043-3.997 0.064-4.256 0.064-0.816 0.042-2.364 0-4.642-0.129-2.494-0.13-4.127-0.194-4.901-0.194-5.201 0-8.661-0.149-10.38-0.45-1.247-0.216-1.87-0.709-1.87-1.483l0.387-1.096c0.257 0.773 1.182 1.16 2.772 1.16 1.031 0 3.438-0.172 7.221-0.516 0.817-0.086 1.375-0.387 1.676-0.902 0.301-0.56 0.538-0.86 0.709-0.903 0.258-0.043 0.752 0.043 1.483 0.258 0.774 0.259 1.59 0.408 2.45 0.451 0.903 0.044 1.634-0.064 2.192-0.322 1.29-0.558 1.978-0.859 2.063-0.901 0.902-0.302 1.419-0.86 1.547-1.678l-0.062-1.161z" fill="#8E6A33"/>
		<path d="m15.961 7.229c2.278-0.086 4.428-0.022 6.447 0.193 1.247 0.129 3.245 0.15 5.997 0.064-2.579 2.837-4.148 5.115-4.707 6.835-0.214 0.688-0.516 2.321-0.903 4.9-0.344 2.149-0.666 3.438-0.966 3.868-0.259 0.387-1.354 0.666-3.289 0.838-2.02 0.13-3.288 0.474-3.804 1.032-2.837 2.837-4.492 4.857-4.965 6.062-0.172 0.558-0.859 1.031-2.063 1.418-1.504 0.516-2.493 0.945-2.965 1.289-1.032 0.73-2.235 2.43-3.611 5.094 0.086-0.774 0.237-1.548 0.452-2.32 0-0.13 0.021-1.14 0.065-3.031 0.042-1.677 0.193-2.923 0.451-3.739 0.258-0.731 0.387-1.741 0.387-3.031 0.043-1.59 0.107-2.686 0.193-3.288 0.172-0.902 0.279-2.944 0.322-6.125 0.086-3.482 0.129-5.309 0.129-5.48l0.258-4.384c1.849-0.388 3.181-0.581 3.998-0.581 0.387 0 1.096 0.107 2.127 0.322 1.075 0.215 1.892 0.322 2.451 0.322 0.557-0.001 1.89-0.087 3.996-0.258z" fill="#C79346"/>
		<path d="m28.663 32.052c-0.902 0.214-1.483 0.45-1.741 0.709-0.258 0.258-0.344 1.246-0.258 2.966 0.087 0.859 0.172 1.697 0.258 2.515-2.923-0.43-5.695-0.495-8.317-0.194-2.321 0.259-5.158 0.173-8.511-0.257-0.43 0-1.418-0.258-2.965-0.774l-2.192-0.773 20.115-24.374 0.517 5.545c0.258 2.88 0.344 4.664 0.258 5.351-0.043 0.859-0.064 2.321-0.064 4.385s0.021 3.203 0.064 3.417c0.129 0.344 1.504 0.73 4.127 1.161-0.389 0.085-0.818 0.193-1.291 0.323z" fill="#694E26"/>
		<path d="m32.402 0.587h0.194l0.515 4.126-1.223 1.097c0.901 0.559 1.354 1.333 1.354 2.321 0 1.204 0.128 4.126 0.387 8.769 0.301 5.287 0.58 8.639 0.839 10.058 0.301 1.806 0.472 4.19 0.515 7.156 0.043 3.139-0.107 4.987-0.451 5.545-0.13 0.172-0.387 0.817-0.774 1.935-0.257 0.731-0.709 1.268-1.354 1.611-0.816 0.087-1.591-1.633-2.321-5.158-0.73-3.48-0.945-6.189-0.645-8.123 0.259-1.462 0.259-5.223 0-11.284-0.301-6.189-0.43-9.392-0.387-9.606 0.086-0.516 0.322-1.054 0.709-1.612 0.344-0.516 0.517-0.838 0.517-0.967 0-0.817 0.365-1.44 1.096-1.87 0.517-0.344 0.645-1.612 0.387-3.804l0.642-0.194z" fill="#7A5A2B"/>
		<polygon points="31.758 0.781 32.338 0.652 33.111 4.713 31.436 5.1 31.758 2.65" fill="#57401F"/>
		<path d="m32.467 5.036l-1.547 1.16c-4.169 0.172-7.329 0.215-9.479 0.129l-14.184-0.322c-0.989 0-2.493 0.387-4.514 1.161l0.774-1.418-0.516-0.839c4.986 0.215 8.403 0.258 10.252 0.129 1.891-0.129 6.62-0.172 14.185-0.129 1.892-0.043 3.568 0 5.029 0.129z" fill="#7A5A2B"/>
		<path d="m20.475 41.465c1.461-0.473 2.472-0.752 3.031-0.839 1.503-0.128 3.287-0.128 5.351 0l2.837 2.515-1.161 0.452h-13.153c-8.941 0-13.992-0.193-15.152-0.58s-1.869-1.398-2.127-3.031c1.548 1.505 2.923 2.322 4.127 2.45 1.848 0.173 3.976 0.216 6.382 0.129 1.376-0.043 3.332-0.15 5.868-0.322 1.332-0.087 2.664-0.344 3.997-0.774z" fill="#694E26"/>
		<path d="m31.242 1.231c-2.623 0.172-5.137 0.28-7.544 0.322-2.407 0.086-7.844 0.56-16.313 1.419 1.118 0.129 2.299 0.237 3.546 0.322 2.536 0.215 4.212 0.301 5.029 0.258 1.333-0.086 6.211 0.021 14.637 0.322-5.674 0-9.436 0.043-11.284 0.129l-15.667 0.259v-3.74c5.33 0.258 9.478 0.387 12.443 0.387l14.895-0.064 0.258 0.386z" fill="#C79346"/>
		<polygon points="31.888 1.876 32.016 4.069 18.218 2.134" fill="#7A5A2B"/>
		<path d="m3.388 0.716l-0.128-0.516 29.078 0.452-1.354 0.645c-4.599-0.043-9.198-0.107-13.798-0.193-9.198-0.173-13.798-0.302-13.798-0.388z" fill="#D69E4C"/>
		<path d="m29.309 7.615l0.128 4.384c0.301 1.29 0.451 2.966 0.451 5.029v11.735c0 0.214-0.021 1.762-0.064 4.642-0.043 2.923 0.021 4.729 0.194 5.416 0.258 1.074 1.053 2.536 2.385 4.384l-1.998-1.611c-0.473-0.387-0.968-1.869-1.484-4.448-0.214-1.032-0.322-2.579-0.322-4.644-0.043-2.192 0.065-3.652 0.322-4.384 0.216-0.602 0.237-2.837 0.066-6.705-0.216-3.998-0.323-6.276-0.323-6.835l0.645-6.963z" fill="#C28F44"/>
		<path d="m29.888 28.764l1.161 3.224c0.344 0.645 0.559 1.031 0.645 1.16 0.301 0.387 0.773 0.753 1.418 1.097 0.474 0.301 0.495-0.173 0.065-1.419-0.517-1.504-0.666-2.386-0.452-2.644 0.431-0.56 0.86-2.708 1.29-6.447l0.258 1.611c0.173 1.247 0.365 2.171 0.58 2.772 0.344 1.032 0.387 4.664 0.129 10.896 0 0.559-0.279 1.354-0.838 2.386-0.258 0.56-0.753 1.031-1.483 1.418-1.246-1.805-2.128-3.138-2.643-3.997-0.344-0.516-0.474-2.342-0.387-5.48l0.257-4.577z" fill="#57401F"/>
		<path d="m33.111 4.713l-0.322 0.967 0.58 1.031c0.344 0.559 0.344 2.257 0 5.094l-1.74-1.418-0.322 4.191c-0.344-2.278-0.688-3.396-1.031-3.353-0.216 0.043-0.366 0.58-0.452 1.612-0.043 0.516-0.064 1.01-0.064 1.483-0.472-2.536-0.709-4.299-0.709-5.287 0-0.602 0.214-1.204 0.646-1.805 0.171-0.301 0.364-0.559 0.58-0.774l-9.35-0.967 6.963-0.129c1.42-0.086 2.365-0.236 2.838-0.452l2.383-0.193z" fill="#57401F"/>
	</g>
		<path fill-rule="evenodd" d="m33.886 20.252v1.225c0 0.903 0.043 1.655 0.129 2.257 0.215 0.988 0.365 2.063 0.452 3.224-0.817 0.859-1.634 1.784-2.451 2.772-0.517 0.688-1.311 1.461-2.385 2.321-7.351-0.344-12.036-0.517-14.057-0.517s-6.877-0.301-14.571-0.902l0.773-7.866c6.362 0.215 11.155 0.431 14.378 0.645 3.224 0.172 7.565 0.172 13.024 0l4.708-3.159z" fill="#42180E"/>
		<path fill-rule="evenodd" d="m30.018 31.729l-0.194-8.77 4.063-2.708v1.225c0 0.903 0.043 1.655 0.129 2.257 0.215 0.988 0.365 2.063 0.452 3.224-0.817 0.859-1.634 1.784-2.451 2.772-0.345 0.474-1.011 1.14-1.999 2z" fill="#1C0A06"/>
		<path fill-rule="evenodd" d="m33.886 21.606l0.451 4.19c-0.73 1.118-1.548 2.042-2.449 2.772-0.903 0.688-1.699 1.439-2.387 2.257l-28.498-1.224 0.451-5.737 28.305 0.773 4.127-3.031z" fill="#C7492C"/>
		<path fill-rule="evenodd" d="m25.504 16.448c-0.043 3.653-0.021 6.189 0.064 7.608 0.172 2.32 0.408 6.92 0.709 13.798-4.298-0.387-7.715-0.474-10.251-0.258-2.494 0.172-6.276-0.107-11.348-0.839 0.172-7.22 0.322-12.056 0.451-14.506l0.71-11.412h10.187c2.965 0 6.146 0.172 9.542 0.516-0.043 1.547-0.064 3.245-0.064 5.093z" fill="#42180E"/>
		<path fill-rule="evenodd" d="m24.987 16.706c-0.043 3.525-0.021 5.975 0.064 7.351l0.581 13.153c-4.041-0.344-7.243-0.431-9.607-0.259-2.407 0.173-5.975-0.063-10.704-0.709 0.129-6.964 0.258-11.627 0.387-13.991l0.645-10.896h9.671c2.793 0 5.803 0.172 9.026 0.516l-0.063 4.835z" fill="#C7492C"/>
		<path fill-rule="evenodd" d="m23.892 17.286c-0.042 3.267-0.021 5.545 0.064 6.834l0.581 12.251c-3.568-0.344-6.384-0.43-8.447-0.258-2.106 0.172-5.244-0.064-9.413-0.709 0.129-6.448 0.257-10.768 0.387-12.96l0.581-10.123h8.446c2.45 0 5.072 0.15 7.866 0.451l-0.065 4.514z" fill="#F0C9A6"/>
		<path fill-rule="evenodd" d="m12.544 29.15c2.407-1.032 4.363-2.171 5.867-3.418l5.287-3.997 0.193-0.065 0.646 14.701c-3.568-0.344-6.384-0.43-8.447-0.258-2.106 0.172-5.244-0.064-9.413-0.709l0.064-3.16c2.407-1.461 4.342-2.492 5.803-3.094z" fill="#C9A98C"/>
		<path fill-rule="evenodd" d="m25.117 24.443l4.642 0.193-0.258 6.189-3.933-0.193c-0.216-0.773-0.322-1.312-0.322-1.612l-0.129-4.577z" fill="#9C3922"/>
			<g fill-rule="evenodd">
				<path d="m12.673 17.157l1.548-0.452c1.118-0.085 2.02 0.28 2.708 1.097 1.161 1.461 1.526 2.88 1.096 4.255-0.559 1.59-2.085 2.558-4.578 2.901-1.977 0.215-3.439-0.408-4.384-1.87-0.816-1.332-1.032-2.687-0.645-4.062 0.257-0.989 1.031-1.59 2.321-1.805 0.687-0.128 1.332-0.149 1.934-0.064z" fill="#C7492C"/>
				<path d="m13.64 22.187c1.375 0.215 2.858 0.107 4.449-0.323-0.43 1.719-1.978 2.751-4.642 3.095-1.977 0.215-3.439-0.408-4.384-1.87-0.816-1.332-1.032-2.687-0.645-4.062 0.085-0.473 0.344-0.881 0.773-1.225l0.194-0.064 0.773 1.999c0.817 1.375 1.978 2.192 3.482 2.45z" fill="#9C3922"/>
				<polygon points="12.673 17.157 11.835 15.545 13.382 15.288 13.253 17.222" fill="#229C86"/>
				<path d="m15.123 17.609c0.731-0.129 1.16 0.15 1.29 0.838 0.129 0.602 0 1.118-0.387 1.548-0.301 0.301-0.838 0.257-1.612-0.129-0.645-0.344-1.204-0.774-1.677-1.29-0.3-0.344-0.043-0.602 0.773-0.773 0.431-0.087 0.968-0.152 1.613-0.194z" fill="#FF5E38"/>
			</g>
			<path d="m9.063 23.089c0.945 1.462 2.407 2.085 4.384 1.87l1.87-0.451 0.194-0.064 0.516-0.258 0.193-0.065 0.451-0.322 0.129-0.063 0.387-0.323 0.063-0.063 0.646-0.968 0.193-0.516c0.301-1.332-0.086-2.686-1.161-4.062-0.817-1.074-2.02-1.375-3.61-0.902l0.064-1.612-1.547 0.258 0.838 1.612c-0.473-0.043-0.988-0.043-1.548 0-1.117 0.129-1.912 0.516-2.385 1.161h-0.065l-0.257 0.709c-0.387 1.372-0.172 2.727 0.645 4.059z" stroke="#404041" stroke-miterlimit="10" stroke-width=".5" fill="none"/>
			<g fill-rule="evenodd">
				<path d="m21.636 20.446c1.289-0.086 1.74 1.074 1.354 3.481-0.387 2.45-1.419 4.514-3.095 6.19-2.45 2.364-4.901 3.61-7.351 3.739-2.278 0.087-3.417-0.601-3.417-2.063 0-1.418 0.881-2.643 2.643-3.675 0.989-0.602 2.536-1.311 4.643-2.128 0.903-0.43 1.87-1.504 2.901-3.224 0.946-1.503 1.719-2.277 2.322-2.32z" fill="#93C255"/>
				<path d="m17.122 27.925c2.063-1.031 3.847-3.438 5.351-7.221 0.774 0.602 0.903 1.956 0.388 4.062-0.516 2.149-1.505 3.933-2.966 5.352-2.45 2.364-4.901 3.61-7.351 3.739-2.278 0.087-3.417-0.601-3.417-2.063 0-0.429 0.064-0.816 0.193-1.16 0.56-0.302 1.763-0.709 3.611-1.225 1.891-0.559 3.288-1.055 4.191-1.484z" fill="#6DA649"/>
				<path d="m17.509 29.73c1.977-0.945 3.46-2.558 4.449-4.836l0.967-3.095h0.129c0.215 1.074 0.042 2.407-0.516 3.997-0.603 1.763-1.483 3.202-2.644 4.32-2.106 2.021-4.277 3.224-6.513 3.61-1.977 0.344-3.31 0.021-3.997-0.967 2.623-0.729 5.331-1.738 8.125-3.029z" fill="#507A36"/>
				<path d="m21.636 20.446l0.322-1.934h1.354l-0.387 2.385c0.344 1.161 0.387 1.848 0.129 2.063-0.302 0.172-0.624-0.344-0.968-1.547-0.816 0.387-1.461 0.516-1.934 0.387-0.301-0.043-0.151-0.28 0.451-0.709 0.344-0.216 0.688-0.43 1.033-0.645z" fill="#5B7D26"/>
			</g>
			<path d="m9.127 31.793c0 0.345 0.086 0.667 0.258 0.968 0.258 0.344 0.602 0.602 1.031 0.773l0.581 0.193 0.323 0.064h0.257l0.387 0.064h0.645l1.74-0.322 1.483-0.58 0.322-0.193 0.58-0.259c0.172-0.085 0.28-0.171 0.323-0.258l1.611-1.031 1.999-1.935v-0.063l0.129-0.129 0.645-0.968 0.064-0.064 0.902-1.805 0.194-0.517 0.258-1.031 0.064-0.193 0.129-0.838v-0.129l0.063-0.193v-0.517c0.173-0.344 0.108-0.989-0.192-1.934l0.387-2.385h-1.354l-0.322 1.934c-0.388 0-0.817 0.3-1.29 0.902-0.215 0.129-0.322 0.258-0.322 0.387-0.301 0.473-0.795 1.246-1.483 2.321-0.688 0.945-1.396 1.59-2.127 1.934-1.763 0.731-3.116 1.333-4.062 1.806-1.633 0.859-2.644 1.805-3.031 2.837v0.065l-0.193 0.45v0.646z" stroke="#404041" stroke-miterlimit="10" stroke-width=".5" fill="none"/>
	<path fill-rule="evenodd" d="m29.372 24.766c0.172-0.387 0.989-1.031 2.45-1.935 0.688-0.43 1.376-0.838 2.063-1.225l0.451 4.19c-0.73 1.118-1.548 2.042-2.449 2.772-0.474 0.344-1.183 0.989-2.129 1.935-0.558-3.223-0.687-5.136-0.386-5.737z" fill="#732A19"/>
	<path fill-rule="evenodd" d="m2.55 23.992v1.482c0.042 1.074 0.193 1.849 0.451 2.321 0.387 0.688 1.031 1.439 1.935 2.257l-3.933-0.452 0.451-5.737 1.096 0.129z" fill="#B36319"/>
</g>
</svg>
